<svg width="30" height="28" viewBox="0 0 30 28" fill="none" xmlns="http://www.w3.org/2000/svg">
<path d="M23.75 5H21.1538C20.7338 2.62125 18.9625 0.6575 16.5612 0.0399999C15.9 -0.13125 15.2125 0.27125 15.0387 0.93875C14.8663 1.6075 15.27 2.28875 15.9388 2.46C17.5938 2.88625 18.75 4.38 18.75 6.0925V20H5C3.62125 20 2.5 18.8787 2.5 17.5V12.5H5.625C6.31625 12.5 6.875 11.94 6.875 11.25C6.875 10.56 6.31625 10 5.625 10H2.5C1.12125 10 0 11.1213 0 12.5V17.5C0 19.85 1.63 21.8262 3.81875 22.3587C3.77375 22.61 3.75 22.8662 3.75 23.125C3.75 25.5375 5.7125 27.5 8.125 27.5C10.5375 27.5 12.5 25.5375 12.5 23.125C12.5 22.9137 12.4838 22.7062 12.4538 22.5H17.5462C17.5162 22.7062 17.5 22.9137 17.5 23.125C17.5 25.5375 19.4625 27.5 21.875 27.5C24.2875 27.5 26.25 25.5375 26.25 23.125C26.25 22.8662 26.2262 22.61 26.1812 22.3587C28.37 21.8262 30 19.85 30 17.5V11.25C30 7.80375 27.1963 5 23.75 5ZM27.5 11.25V12.5H21.25V7.5H23.75C25.8175 7.5 27.5 9.1825 27.5 11.25ZM10 23.125C10 24.1588 9.15875 25 8.125 25C7.09125 25 6.25 24.1588 6.25 23.125C6.25 22.8888 6.29625 22.68 6.36375 22.5H9.8875C9.955 22.68 10.0013 22.8888 10.0013 23.125H10ZM21.875 25C20.8412 25 20 24.1588 20 23.125C20 22.8888 20.0462 22.68 20.1138 22.5H23.6375C23.705 22.68 23.7512 22.8888 23.7512 23.125C23.7512 24.1588 22.9088 25 21.875 25ZM25 20H21.25V15H27.5V17.5C27.5 18.8787 26.3787 20 25 20ZM0 1.25C0 0.56 0.55875 0 1.25 0H11.4425C12.1337 0 12.6925 0.56 12.6925 1.25C12.6925 1.94 12.1337 2.5 11.4425 2.5H1.25C0.55875 2.5 0 1.94 0 1.25ZM0 6.25C0 5.56 0.55875 5 1.25 5H8.9425C9.63375 5 10.1925 5.56 10.1925 6.25C10.1925 6.94 9.63375 7.5 8.9425 7.5H1.25C0.55875 7.5 0 6.94 0 6.25Z" fill="#222222" fill-opacity="0.5"/>
</svg>
